. 
  
http://www.torrenting.com/        :     Greatest Movie Tracker on The Net!!!
 
http://www.Torrenting.com          :     Once & For all ;)


               www . Torrenting . Com 

(((((((((((((= Enjoy No RAR releases =))))))))))))))))))))


...................................NFO:....................................

.








































          
          
              
              
                    
                    
                    
                    

Midnight.Movie.The.Killer.Cut.2008.DVDRiP.XviD-SiC

Poster:
[img]http://img89.imageshack.us/img89/7449/midnightmoviekillercutp.jpg[/img]

IMDB Link:
http://www.imdb.com/title/tt0981224/

Description:
A midnight showing of an early 1970's horror movie turns to chaos when the Killer from the movie comes out of the film to attack those in the theater. 

MediaInfo:
General
Complete name                    : Midnight.Movie.The.Killer.Cut.2008.DVDRiP.XviD-SiC.avi
Format                           : AVI
Format/Info                      : Audio Video Interleave
File size                        : 1.49 GiB
Duration                         : 1h 21mn
Overall bit rate                 : 2 622 Kbps

Video
ID                               : 0
Format                           : MPEG-4 Visual
Format profile                   : Advanced Simple@L5
Format settings, BVOP            : 1
Format settings, QPel            : No
Format settings, GMC             : No warppoints
Format settings, Matrix          : Default (H.263)
Codec ID                         : XVID
Codec ID/Hint                    : XviD
Duration                         : 1h 21mn
Bit rate                         : 2 167 Kbps
Width                            : 720 pixels
Height                           : 400 pixels
Display aspect ratio             : 16:9
Frame rate                       : 23.976 fps
Color space                      : YUV
Chroma subsampling               : 4:2:0
Bit depth                        : 8 bits
Scan type                        : Progressive
Compression mode                 : Lossy
Bits/(Pixel*Frame)               : 0.314
Stream size                      : 1.23 GiB (83%)
Writing library                  : XviD 1.2.1 (UTC 2008-12-04)

Audio
ID                               : 1
Format                           : AC-3
Format/Info                      : Audio Coding 3
Mode extension                   : CM (complete main)
Codec ID                         : 2000
Duration                         : 1h 21mn
Bit rate mode                    : Constant
Bit rate                         : 448 Kbps
Channel(s)                       : 6 channels
Channel positions                : Front: L C R, Side: L R, LFE
Sampling rate                    : 48.0 KHz
Bit depth                        : 16 bits
Compression mode                 : Lossy
Stream size                      : 261 MiB (17%)
Alignment                        : Aligned on interleaves
Interleave, duration             : 64 ms (1.53 video frames)
Interleave, preload duration     : 192 ms
Title                            : MM T81 3_2ch 448Kbps DELAY 0ms

Screenshots:
[img]http://img97.imageshack.us/img97/5707/vlcsnap2011082915h47m35.png[/img]
[img]http://img694.imageshack.us/img694/8931/vlcsnap2011082915h47m48.png[/img]
[img]http://img707.imageshack.us/img707/9977/vlcsnap2011082915h47m56.png[/img]
[img]http://img18.imageshack.us/img18/2983/vlcsnap2011082915h48m26.png[/img]
[img]http://img52.imageshack.us/img52/4996/vlcsnap2011082915h48m42.png[/img]

Note : After the surprise success of the direct-to-DVD horror film Midnight Movie, the production company gave the crew extra money to go back and film new scenes, update the effects, and record an all new score for the "killer cut" of this movie. If you saw it last year, it's different enough for you to see it again. It's also a great little horror flick.

Source: Our own

Encoder: thefuzz

Enjoy!

Respects to CaptainHomey, Cyanide, CM8, Rx, THC, ELEKTRI4KA, 
Killerhz, PA, YeFsTe, BoxSlots, MrRep and everyone in the struggle...